<svg width="28" height="41" viewBox="0 0 28 41" fill="none" xmlns="http://www.w3.org/2000/svg">
<path d="M14.0001 9.08333C13.0796 9.08333 12.3334 9.82953 12.3334 10.75V17.4167C12.3334 18.3372 13.0796 19.0833 14.0001 19.0833C14.9206 19.0833 15.6667 18.3372 15.6667 17.4167V10.75C15.6667 9.82953 14.9206 9.08333 14.0001 9.08333Z" fill="white"/>
<path fill-rule="evenodd" clip-rule="evenodd" d="M0.666748 14.0833C0.666748 6.71953 6.63628 0.75 14.0001 0.75C21.3639 0.75 27.3334 6.71953 27.3334 14.0833V27.4167C27.3334 34.7805 21.3639 40.75 14.0001 40.75C6.63628 40.75 0.666748 34.7805 0.666748 27.4167V14.0833ZM24.0001 14.0833V27.4167C24.0001 32.9395 19.5229 37.4167 14.0001 37.4167C8.47723 37.4167 4.00008 32.9395 4.00008 27.4167V14.0833C4.00008 8.56048 8.47723 4.08333 14.0001 4.08333C19.5229 4.08333 24.0001 8.56048 24.0001 14.0833Z" fill="white"/>
</svg>
